<svg xmlns="http://www.w3.org/2000/svg" xmlns:xlink="http://www.w3.org/1999/xlink" id="Capa_1" x="0px" y="0px" viewBox="0 0 150 70" style="enable-background:new 0 0 150 70;" xml:space="preserve">
<style type="text/css">
	.st0{fill:#737277;}
	.st1{fill:#96D952;}
	.st2{fill:#76C2E2;}
	.st3{fill:#FCC223;}
	.st4{fill:#F38181;}
</style>
<g>
	<g>
		<g>
			<path class="st0" d="M4.6,41.7h3l2.4,3.9l2.4-3.9h3v10.2h-2.8V46l-2.6,4H10l-2.6-4v5.8H4.6V41.7z"></path>
			<path class="st0" d="M18,41.7h8.2v2.4h-5.4v1.5h4.9v2.2h-4.9v1.6h5.5v2.4H18V41.7z"></path>
			<path class="st0" d="M30.9,44.1h-3.1v-2.5h8.9v2.5h-3.1v7.7h-2.8V44.1z"></path>
			<path class="st0" d="M38.8,41.7h4.8c0.8,0,1.5,0.1,2,0.3c0.5,0.2,1,0.5,1.3,0.8c0.6,0.6,0.9,1.4,0.9,2.4v0c0,0.8-0.2,1.4-0.6,2     c-0.4,0.5-0.9,0.9-1.5,1.2l2.4,3.6h-3.3l-2.1-3.1h0h-1.2v3.1h-2.8V41.7z M43.5,46.5c0.5,0,0.9-0.1,1.1-0.3     c0.3-0.2,0.4-0.5,0.4-0.9v0c0-0.4-0.1-0.7-0.4-0.9c-0.3-0.2-0.6-0.3-1.1-0.3h-1.8v2.4H43.5z"></path>
			<path class="st0" d="M55.1,52c-0.8,0-1.5-0.1-2.2-0.4c-0.7-0.3-1.2-0.7-1.7-1.1c-0.5-0.5-0.9-1-1.1-1.7c-0.3-0.6-0.4-1.3-0.4-2.1     v0c0-0.7,0.1-1.4,0.4-2.1s0.7-1.2,1.2-1.7c0.5-0.5,1.1-0.9,1.7-1.1c0.7-0.3,1.4-0.4,2.2-0.4c0.8,0,1.5,0.1,2.2,0.4     c0.7,0.3,1.2,0.7,1.7,1.1c0.5,0.5,0.9,1,1.1,1.7c0.3,0.6,0.4,1.3,0.4,2.1v0c0,0.7-0.1,1.4-0.4,2.1c-0.3,0.6-0.7,1.2-1.2,1.7     c-0.5,0.5-1.1,0.9-1.7,1.1C56.6,51.9,55.9,52,55.1,52z M55.1,49.5c0.4,0,0.7-0.1,1.1-0.2c0.3-0.1,0.6-0.3,0.8-0.6     c0.2-0.2,0.4-0.5,0.5-0.9s0.2-0.7,0.2-1v0c0-0.4-0.1-0.7-0.2-1c-0.1-0.3-0.3-0.6-0.5-0.9c-0.2-0.3-0.5-0.5-0.8-0.6     c-0.3-0.2-0.7-0.2-1.1-0.2c-0.4,0-0.7,0.1-1.1,0.2c-0.3,0.1-0.6,0.3-0.8,0.6c-0.2,0.2-0.4,0.5-0.5,0.9c-0.1,0.3-0.2,0.7-0.2,1v0     c0,0.4,0.1,0.7,0.2,1c0.1,0.3,0.3,0.6,0.5,0.9c0.2,0.3,0.5,0.5,0.8,0.6C54.4,49.4,54.7,49.5,55.1,49.5z"></path>
			<path class="st0" d="M62.8,41.7h4.4c0.6,0,1.2,0.1,1.7,0.2c0.5,0.2,1,0.4,1.3,0.7c0.4,0.3,0.7,0.7,0.9,1.1c0.2,0.4,0.3,1,0.3,1.5     v0c0,0.6-0.1,1.1-0.3,1.6c-0.2,0.5-0.5,0.8-0.9,1.1c-0.4,0.3-0.9,0.5-1.4,0.7c-0.5,0.2-1.1,0.2-1.8,0.2h-1.4v2.9h-2.8V41.7z      M66.9,46.7c0.5,0,0.9-0.1,1.2-0.4c0.3-0.2,0.4-0.6,0.4-1v0c0-0.4-0.1-0.8-0.4-1c-0.3-0.2-0.7-0.3-1.2-0.3h-1.3v2.7H66.9z"></path>
			<path class="st0" d="M78.4,52c-0.8,0-1.5-0.1-2.2-0.4c-0.7-0.3-1.2-0.7-1.7-1.1c-0.5-0.5-0.9-1-1.1-1.7c-0.3-0.6-0.4-1.3-0.4-2.1     v0c0-0.7,0.1-1.4,0.4-2.1s0.7-1.2,1.2-1.7c0.5-0.5,1.1-0.9,1.7-1.1c0.7-0.3,1.4-0.4,2.2-0.4c0.8,0,1.5,0.1,2.2,0.4     c0.7,0.3,1.2,0.7,1.7,1.1c0.5,0.5,0.9,1,1.1,1.7c0.3,0.6,0.4,1.3,0.4,2.1v0c0,0.7-0.1,1.4-0.4,2.1c-0.3,0.6-0.7,1.2-1.2,1.7     s-1.1,0.9-1.7,1.1C79.9,51.9,79.2,52,78.4,52z M78.4,49.5c0.4,0,0.7-0.1,1.1-0.2c0.3-0.1,0.6-0.3,0.8-0.6     c0.2-0.2,0.4-0.5,0.5-0.9s0.2-0.7,0.2-1v0c0-0.4-0.1-0.7-0.2-1c-0.1-0.3-0.3-0.6-0.5-0.9c-0.2-0.3-0.5-0.5-0.8-0.6     c-0.3-0.2-0.7-0.2-1.1-0.2c-0.4,0-0.7,0.1-1.1,0.2c-0.3,0.1-0.6,0.3-0.8,0.6c-0.2,0.2-0.4,0.5-0.5,0.9c-0.1,0.3-0.2,0.7-0.2,1v0     c0,0.4,0.1,0.7,0.2,1c0.1,0.3,0.3,0.6,0.5,0.9c0.2,0.3,0.5,0.5,0.8,0.6C77.7,49.4,78.1,49.5,78.4,49.5z"></path>
			<path class="st0" d="M86.1,41.7h2.8v7.7h4.9v2.5h-7.8V41.7z"></path>
			<path class="st0" d="M95.9,41.7h2.8v10.2h-2.8V41.7z"></path>
			<path class="st0" d="M103.8,44.1h-3.1v-2.5h8.9v2.5h-3.1v7.7h-2.8V44.1z"></path>
			<path class="st0" d="M115.2,41.6h2.7l4.3,10.3h-3l-0.7-1.8h-3.9l-0.7,1.8h-3L115.2,41.6z M117.6,47.8l-1.1-2.9l-1.1,2.9H117.6z"></path>
			<path class="st0" d="M123.9,41.7h2.6l4.2,5.4v-5.4h2.8v10.2h-2.5l-4.4-5.6v5.6h-2.8V41.7z"></path>
			<path class="st0" d="M141.2,52c-0.8,0-1.5-0.1-2.2-0.4c-0.7-0.3-1.2-0.7-1.7-1.1c-0.5-0.5-0.9-1-1.1-1.7     c-0.3-0.6-0.4-1.3-0.4-2.1v0c0-0.7,0.1-1.4,0.4-2.1c0.3-0.6,0.7-1.2,1.2-1.7c0.5-0.5,1.1-0.9,1.7-1.1c0.7-0.3,1.4-0.4,2.2-0.4     c0.8,0,1.5,0.1,2.2,0.4c0.7,0.3,1.2,0.7,1.7,1.1c0.5,0.5,0.9,1,1.1,1.7c0.3,0.6,0.4,1.3,0.4,2.1v0c0,0.7-0.1,1.4-0.4,2.1     c-0.3,0.6-0.7,1.2-1.2,1.7s-1.1,0.9-1.7,1.1C142.7,51.9,142,52,141.2,52z M141.2,49.5c0.4,0,0.7-0.1,1.1-0.2     c0.3-0.1,0.6-0.3,0.8-0.6c0.2-0.2,0.4-0.5,0.5-0.9c0.1-0.3,0.2-0.7,0.2-1v0c0-0.4-0.1-0.7-0.2-1c-0.1-0.3-0.3-0.6-0.5-0.9     c-0.2-0.3-0.5-0.5-0.8-0.6c-0.3-0.2-0.7-0.2-1.1-0.2c-0.4,0-0.7,0.1-1.1,0.2c-0.3,0.1-0.6,0.3-0.8,0.6c-0.2,0.2-0.4,0.5-0.5,0.9     c-0.1,0.3-0.2,0.7-0.2,1v0c0,0.4,0.1,0.7,0.2,1c0.1,0.3,0.3,0.6,0.5,0.9c0.2,0.3,0.5,0.5,0.8,0.6     C140.5,49.4,140.8,49.5,141.2,49.5z"></path>
		</g>
		<g>
			<path class="st0" d="M4.6,56.2h3.7c0.6,0,1.1,0.1,1.5,0.2c0.5,0.1,0.9,0.3,1.2,0.6c0.3,0.3,0.6,0.6,0.8,1     c0.2,0.4,0.3,0.8,0.3,1.3v0c0,0.5-0.1,1-0.3,1.4c-0.2,0.4-0.5,0.7-0.9,1s-0.8,0.5-1.3,0.6c-0.5,0.1-1,0.2-1.5,0.2H5.4v3.8H4.6     V56.2z M8.2,61.9c0.5,0,0.9-0.1,1.3-0.2c0.4-0.1,0.7-0.3,1-0.5c0.3-0.2,0.5-0.5,0.6-0.8s0.2-0.7,0.2-1v0c0-0.4-0.1-0.8-0.2-1.1     c-0.1-0.3-0.4-0.6-0.6-0.8c-0.3-0.2-0.6-0.4-1-0.5c-0.4-0.1-0.8-0.2-1.2-0.2H5.4v5H8.2z"></path>
			<path class="st0" d="M18.8,56.1h0.7l4.7,10.2h-0.8l-1.3-2.8h-6l-1.3,2.8h-0.8L18.8,56.1z M21.8,62.8l-2.7-5.9l-2.7,5.9H21.8z"></path>
			<path class="st0" d="M27,56.2h4.3c0.6,0,1.2,0.1,1.7,0.3c0.5,0.2,0.9,0.4,1.2,0.7c0.2,0.2,0.4,0.5,0.6,0.8c0.1,0.3,0.2,0.7,0.2,1     v0c0,0.4-0.1,0.8-0.2,1.1c-0.1,0.3-0.4,0.6-0.6,0.9c-0.3,0.2-0.6,0.4-0.9,0.6c-0.4,0.1-0.8,0.3-1.2,0.3l3.4,4.3h-1l-3.2-4.2h0     h-3.3v4.2H27V56.2z M31.2,61.4c0.4,0,0.8-0.1,1.2-0.2s0.7-0.3,0.9-0.5c0.3-0.2,0.5-0.4,0.6-0.7c0.1-0.3,0.2-0.6,0.2-1v0     c0-0.7-0.3-1.2-0.8-1.6c-0.5-0.4-1.2-0.6-2.2-0.6h-3.5v4.6H31.2z"></path>
			<path class="st0" d="M46.1,65.4c-0.4,0.4-0.9,0.7-1.5,0.9c-0.5,0.2-1.1,0.3-1.8,0.3c-0.8,0-1.5-0.1-2.1-0.4     c-0.6-0.3-1.2-0.7-1.6-1.1c-0.4-0.5-0.8-1-1-1.7c-0.2-0.6-0.4-1.3-0.4-2v0c0-0.7,0.1-1.4,0.4-2c0.2-0.6,0.6-1.2,1-1.7     c0.4-0.5,1-0.9,1.6-1.2c0.6-0.3,1.3-0.4,2.1-0.4c0.8,0,1.5,0.1,2.1,0.4c0.6,0.3,1.2,0.7,1.6,1.1s0.8,1,1,1.7     c0.2,0.6,0.4,1.3,0.4,2c0,0,0,0,0,0c0,0.7-0.1,1.3-0.3,1.9c-0.2,0.6-0.6,1.2-1,1.6l1.5,1.2l-0.5,0.6L46.1,65.4z M42.8,65.8     c0.5,0,1-0.1,1.5-0.3c0.5-0.2,0.9-0.4,1.2-0.7l-2-1.7l0.5-0.6l1.9,1.8c0.3-0.4,0.6-0.9,0.8-1.4c0.2-0.5,0.3-1.1,0.3-1.7v0     c0-0.6-0.1-1.2-0.3-1.8c-0.2-0.6-0.5-1-0.9-1.5c-0.4-0.4-0.8-0.7-1.4-1c-0.5-0.2-1.1-0.4-1.7-0.4c-0.6,0-1.2,0.1-1.7,0.4     c-0.5,0.2-1,0.6-1.4,1c-0.4,0.4-0.7,0.9-0.9,1.4c-0.2,0.6-0.3,1.1-0.3,1.8v0c0,0.6,0.1,1.2,0.3,1.8c0.2,0.6,0.5,1,0.9,1.5     c0.4,0.4,0.8,0.7,1.4,1C41.6,65.7,42.2,65.8,42.8,65.8z"></path>
			<path class="st0" d="M55.1,66.5c-0.6,0-1.2-0.1-1.7-0.3c-0.5-0.2-0.9-0.5-1.3-0.8c-0.4-0.4-0.7-0.8-0.9-1.4     c-0.2-0.5-0.3-1.2-0.3-1.9v-5.9h0.8V62c0,1.2,0.3,2.1,0.9,2.8c0.6,0.7,1.4,1,2.5,1c0.5,0,1-0.1,1.4-0.2c0.4-0.2,0.8-0.4,1.1-0.7     c0.3-0.3,0.5-0.7,0.7-1.2c0.2-0.5,0.2-1,0.2-1.6v-5.9h0.8V62c0,0.7-0.1,1.4-0.3,1.9c-0.2,0.6-0.5,1-0.9,1.4     c-0.4,0.4-0.8,0.7-1.3,0.9C56.3,66.4,55.7,66.5,55.1,66.5z"></path>
			<path class="st0" d="M62.8,56.2H70v0.7h-6.5v4h5.8v0.7h-5.8v4.1h6.5v0.7h-7.3V56.2z"></path>
			<path class="st0" d="M78.1,56.2h3.4c0.8,0,1.5,0.1,2.2,0.4c0.7,0.3,1.2,0.6,1.7,1.1c0.5,0.5,0.8,1,1.1,1.6c0.3,0.6,0.4,1.3,0.4,2     v0c0,0.7-0.1,1.4-0.4,2c-0.3,0.6-0.6,1.2-1.1,1.6c-0.5,0.5-1,0.8-1.7,1.1c-0.7,0.3-1.4,0.4-2.2,0.4h-3.4V56.2z M81.5,65.7     c0.7,0,1.3-0.1,1.9-0.3c0.6-0.2,1.1-0.5,1.5-0.9c0.4-0.4,0.7-0.9,0.9-1.4c0.2-0.5,0.3-1.1,0.3-1.7v0c0-0.6-0.1-1.2-0.3-1.7     c-0.2-0.5-0.5-1-0.9-1.4c-0.4-0.4-0.9-0.7-1.5-0.9c-0.6-0.2-1.2-0.3-1.9-0.3h-2.6v8.8H81.5z"></path>
			<path class="st0" d="M90,56.2h7.2v0.7h-6.5v4h5.8v0.7h-5.8v4.1h6.5v0.7H90V56.2z"></path>
			<path class="st0" d="M105.4,56.2h0.8v9.5h6v0.7h-6.7V56.2z"></path>
			<path class="st0" d="M115,56.2h7.2v0.7h-6.5v4h5.8v0.7h-5.8v4.1h6.5v0.7H115V56.2z"></path>
			<path class="st0" d="M129.9,66.5c-0.8,0-1.5-0.1-2.1-0.4c-0.6-0.3-1.2-0.7-1.6-1.1c-0.4-0.5-0.8-1-1-1.7c-0.2-0.6-0.4-1.3-0.4-2     v0c0-0.7,0.1-1.4,0.4-2c0.2-0.6,0.6-1.2,1-1.7c0.4-0.5,1-0.9,1.6-1.2c0.6-0.3,1.3-0.4,2.1-0.4c0.8,0,1.5,0.1,2.1,0.4     c0.6,0.3,1.2,0.7,1.6,1.1c0.4,0.5,0.8,1,1,1.7c0.2,0.6,0.4,1.3,0.4,2c0,0,0,0,0,0c0,0.7-0.1,1.4-0.4,2c-0.2,0.6-0.6,1.2-1,1.7     c-0.4,0.5-1,0.9-1.6,1.2C131.4,66.4,130.7,66.5,129.9,66.5z M130,65.8c0.6,0,1.2-0.1,1.7-0.4c0.5-0.2,1-0.6,1.4-1     c0.4-0.4,0.7-0.9,0.9-1.4c0.2-0.6,0.3-1.1,0.3-1.8v0c0-0.6-0.1-1.2-0.3-1.8c-0.2-0.6-0.5-1-0.9-1.5c-0.4-0.4-0.8-0.7-1.4-1     c-0.5-0.2-1.1-0.4-1.7-0.4c-0.6,0-1.2,0.1-1.7,0.4c-0.5,0.2-1,0.6-1.4,1c-0.4,0.4-0.7,0.9-0.9,1.4c-0.2,0.6-0.3,1.1-0.3,1.8v0     c0,0.6,0.1,1.2,0.3,1.8c0.2,0.6,0.5,1,0.9,1.5c0.4,0.4,0.8,0.7,1.4,1C128.8,65.7,129.3,65.8,130,65.8z M131,53.3l0.9,0.4     l-1.6,1.5h-0.6L131,53.3z"></path>
			<path class="st0" d="M138.3,56.2h0.7l7,8.8v-8.8h0.7v10.2h-0.6l-7.2-9v9h-0.7V56.2z"></path>
		</g>
	</g>
	<g>
		<path class="st1" d="M36.2,19.3C36.2,19.3,36.2,19.2,36.2,19.3c0-0.1,0-0.1,0-0.2V3.5H20.4c-8.7,0-15.8,7.1-15.8,15.8v12.9    C16.4,30.6,24.9,16.2,25,16c0.2-0.3,0.5-0.4,0.8-0.2c0.3,0.1,0.4,0.5,0.3,0.7c0,0-2.2,4.9-5.6,9.8c-3.1,4.3-6.3,7.3-9.4,8.8h9.5    C29.1,35.1,36.2,28,36.2,19.3z"></path>
		<g>
			<path class="st2" d="M73,29.5c-10.9-12.1-28.2-8-31.3-7.1c0.3,1.5,0.8,2.9,1.5,4.2C46,26,51,25.2,56.5,25.8     c6.7,0.8,12.2,3.4,16.5,7.7V29.5z"></path>
			<path class="st2" d="M69.9,9.8c-1.1-1.5-2.4-2.7-4-3.7c-3.3,5.8-3.9,11.8-4,15.2c1.5,0.5,3.1,1.1,4.6,1.8     C66.7,18.4,67.9,13.7,69.9,9.8z"></path>
			<path class="st2" d="M56.3,20.1c1.5,0.2,3,0.4,4.6,0.8c0.1-3.5,0.7-9.6,4.1-15.5c-1.4-0.8-2.8-1.3-4.4-1.7     C56.6,10.2,56.2,17,56.3,20.1z"></path>
			<path class="st2" d="M72.9,35.1c-3.5-3.7-12.6-11-29-7.4c0.9,1.5,2.1,2.9,3.5,4c5.4-0.6,13.2-0.5,20.1,3.5H72.9z"></path>
			<path class="st2" d="M57.3,35.1H65c-5.7-2.6-11.6-2.9-16.2-2.5C51.3,34.2,54.2,35.1,57.3,35.1z"></path>
			<path class="st2" d="M41.6,21.3c0.4-0.1,1.1-0.3,1.9-0.5c-0.4-2.2-1.1-4.3-2-6.3v4.6c0,0,0,0.1,0,0.1c0,0,0,0.1,0,0.1     C41.5,20,41.5,20.6,41.6,21.3z"></path>
			<path class="st2" d="M54.9,3.5c-3.9,6.4-4.4,13.3-4.3,16.4c1.4-0.1,2.9,0,4.5,0.1c0-3.2,0.5-10,4.2-16.4     c-0.7-0.1-1.4-0.1-2.1-0.1H54.9z"></path>
			<path class="st2" d="M51.2,8.9c0.6-1.8,1.4-3.6,2.4-5.4h-7.5C48,5.2,49.7,7,51.2,8.9z"></path>
			<path class="st2" d="M73,19.3c0-3.1-0.9-6-2.4-8.4c-1.8,3.8-2.8,8.3-2.9,12.8c1.9,1.1,3.7,2.4,5.4,4.1V19.3z"></path>
			<path class="st2" d="M50.7,10.2c-1.7-2.4-3.9-4.7-6.4-6.7h-2.8v1.6c3.9,3.8,6.6,8,8,12.4C49.6,15.5,50,13,50.7,10.2z"></path>
			<path class="st2" d="M41.5,12.1c1.5,2.5,2.5,5.4,3.1,8.5c1.2-0.2,2.7-0.4,4.4-0.6c-1.1-4.8-3.6-9.3-7.6-13.4V12.1z"></path>
		</g>
		<g>
			<circle class="st3" cx="102.1" cy="12.5" r="1"></circle>
			<path class="st3" d="M78.3,25.7v9.4h15.8c8.7,0,15.8-7.1,15.8-15.8v-6.7l-3.6,3l0,0c0,0.5,0.1,0.9,0.1,1.3c0,4-0.8,13-12.7,14.5     C84.7,32.5,79.9,27.5,78.3,25.7z"></path>
			<path class="st3" d="M109.9,3.5H94.1c-8.7,0-15.8,7.1-15.8,15.8c0,0,0,0.1,0,0.1c0,0,0,0.1,0,0.1v6.2c1.6-0.2,6.5-1.6,9.6-5.6     c4.3-5.5,5-13,10.9-13c3.2,0,5.1,1.7,6.2,3.9l4.8,1.6V3.5z"></path>
		</g>
		<path class="st4" d="M133.7,20.7c0.7-0.2,5.1-1.8,7-1.8c0.9,0,3,0.3,4.1,0.5l1.9,0.3v-0.2c0,0,0-0.1,0-0.1c0,0,0-0.1,0-0.1    c0-8.7-7.1-15.8-15.8-15.8h-15.8v9.9l2.9-0.7c0.9-0.2,8.6-1.6,9.7-1.4c1.5,0.4,5.8,2.9,6.7,3.7c1.3,1.2,0.3,2.5-0.8,1.9    c-1.5-0.8-3.5-1.6-5.5-1.9c-1.8-0.3-5.2,0.4-5.2,1.2c0,0.3,3-0.8,4.8-0.3c1.4,0.4,1.2,1.7,0.4,1.8c-0.7,0.2-5.1,1.8-7,1.8    c-0.9,0-3-0.3-4.1-0.5l-1.9-0.3v0.4c0,8.7,7.1,15.8,15.8,15.8h15.8v-9.9l-3,0.7c-0.9,0.2-8.6,1.6-9.7,1.4    c-1.5-0.4-5.8-2.9-6.7-3.7c-1.3-1.2-0.3-2.5,0.8-1.9c1.5,0.8,3.5,1.6,5.5,1.9c1.8,0.3,5.2-0.4,5.2-1.2c0-0.3-3,0.8-4.8,0.3    C132.8,22.2,133,20.9,133.7,20.7z"></path>
	</g>
</g>
</svg>